<svg width="32" height="32" viewBox="0 0 32 32" fill="none" xmlns="http://www.w3.org/2000/svg">
<g clip-path="url(#clip0_449_68921)">
<path d="M14.6537 0.668506L0.668397 14.6423C-0.083476 15.3936 -0.083476 16.607 0.668397 17.3582L14.6537 31.332C15.4056 32.0833 16.62 32.0833 17.3718 31.332L23.2357 25.473C23.909 24.8002 23.909 23.7094 23.2357 23.0366C22.5623 22.3638 21.4706 22.3638 20.7972 23.0366L16.3519 27.4782C16.1648 27.6652 15.8807 27.6652 15.6936 27.4782L4.52535 16.3192C4.33821 16.1322 4.33821 15.8484 4.52535 15.6614L15.6936 4.50232C15.8807 4.31534 16.1648 4.31534 16.3519 4.50232L20.7972 8.94399C21.4706 9.6168 22.5623 9.6168 23.2357 8.94399C23.909 8.27119 23.909 7.18036 23.2357 6.50756L17.3725 0.64918C16.6175 -0.0858169 15.4027 -0.0798666 14.6537 0.668506Z" fill="url(#paint0_linear_449_68921)"/>
<path d="M14.6537 0.668506L0.668397 14.6423C-0.083476 15.3936 -0.083476 16.607 0.668397 17.3582L14.6537 31.332C15.4056 32.0833 16.62 32.0833 17.3718 31.332L23.2357 25.473C23.909 24.8002 23.909 23.7094 23.2357 23.0366C22.5623 22.3638 21.4706 22.3638 20.7972 23.0366L16.3519 27.4782C16.1648 27.6652 15.8807 27.6652 15.6936 27.4782L4.52535 16.3192C4.33821 16.1322 4.33821 15.8484 4.52535 15.6614L15.6936 4.50232C16.1596 4.10061 16.9199 3.28695 18.0363 3.09665C18.8661 2.95523 19.7732 3.2665 20.7578 4.03049C20.0995 3.37281 18.9711 2.24571 17.3725 0.64918C16.6175 -0.0858169 15.4027 -0.0798666 14.6537 0.668506Z" fill="url(#paint1_linear_449_68921)"/>
<path d="M24.5889 21.7368C25.2623 22.4096 26.354 22.4096 27.0274 21.7368L31.3528 17.4149C32.1047 16.6636 32.1047 15.4502 31.3529 14.699L26.9897 10.3549C26.3148 9.68293 25.2227 9.6839 24.549 10.3571C23.8756 11.0299 23.8756 12.1207 24.549 12.7935L27.4959 15.738C27.683 15.925 27.683 16.2088 27.4959 16.3958L24.5889 19.3003C23.9156 19.9731 23.9156 21.064 24.5889 21.7368Z" fill="url(#paint2_linear_449_68921)"/>
<path d="M16.0827 19.8427C18.1681 19.8427 19.8587 18.1535 19.8587 16.0698C19.8587 13.9861 18.1681 12.2969 16.0827 12.2969C13.9972 12.2969 12.3066 13.9861 12.3066 16.0698C12.3066 18.1535 13.9972 19.8427 16.0827 19.8427Z" fill="url(#paint3_linear_449_68921)"/>
</g>
<defs>
<linearGradient id="paint0_linear_449_68921" x1="14.7831" y1="0.10254" x2="28.0732" y2="8.21859" gradientUnits="userSpaceOnUse">
<stop stop-color="#4285EB"/>
<stop offset="1" stop-color="#2EC7FF"/>
</linearGradient>
<linearGradient id="paint1_linear_449_68921" x1="16.5657" y1="0.102539" x2="10.0016" y2="34.0275" gradientUnits="userSpaceOnUse">
<stop stop-color="#29CDFF"/>
<stop offset="0.378601" stop-color="#148EFF"/>
<stop offset="1" stop-color="#0A60FF"/>
</linearGradient>
<linearGradient id="paint2_linear_449_68921" x1="29.5306" y1="8.24406" x2="20.9897" y2="21.6013" gradientUnits="userSpaceOnUse">
<stop stop-color="#FA816E"/>
<stop offset="0.414726" stop-color="#F74A5C"/>
<stop offset="1" stop-color="#F51D2C"/>
</linearGradient>
<linearGradient id="paint3_linear_449_68921" x1="17.4517" y1="9.60372" x2="14.6099" y2="20.9714" gradientUnits="userSpaceOnUse">
<stop stop-color="#FA8E7D"/>
<stop offset="0.512635" stop-color="#F74A5C"/>
<stop offset="1" stop-color="#F51D2C"/>
</linearGradient>
<clipPath id="clip0_449_68921">
<rect width="32" height="32" fill="white"/>
</clipPath>
</defs>
</svg>
